# xmcd CD database file
#
# Track frame offsets:
#	150
#	16916
#	42848
#	67113
#	88757
#	114119
#	129053
#	154213
#
# Disc length: 2724 seconds
#
# Revision: 0
# Processed by: cddbd v1.5.1PL0 Copyright (c) Steve Scherf et al.
# Submitted via: CDex 1.51
#
DISCID=5a0aa208
DTITLE=Jerome Godboo - Live at Healey's
DYEAR=2003
DGENRE=Blues
TTITLE0=Jesse
TTITLE1=I Stand Up For My Baby
TTITLE2=Low Yo-Yo
TTITLE3=Teena Neena Noo
TTITLE4=October 17
TTITLE5=Cold Woman Blues
TTITLE6=Where's My Money
TTITLE7=Sing For My Supper
EXTD=YEAR: 2003
EXTT0=
EXTT1=
EXTT2=
EXTT3=
EXTT4=
EXTT5=
EXTT6=
EXTT7=
PLAYORDER=
